<?xml version="1.0" standalone="no"?>
<!DOCTYPE svg PUBLIC "-//W3C//DTD SVG 20010904//EN"
 "http://www.w3.org/TR/2001/REC-SVG-20010904/DTD/svg10.dtd">
<svg version="1.0" xmlns="http://www.w3.org/2000/svg"
 width="387.000000pt" height="409.000000pt" viewBox="0 0 387.000000 409.000000"
 preserveAspectRatio="xMidYMid meet">
<g transform="translate(0.000000,409.000000) scale(0.100000,-0.100000)"
fill="#000000" stroke="none">
<path d="M1780 3559 c-30 -5 -91 -22 -137 -38 -276 -95 -479 -313 -554 -596
-17 -62 -21 -109 -21 -210 0 -153 20 -244 82 -373 32 -68 40 -95 40 -141 l0
-58 -104 -104 c-153 -154 -254 -340 -264 -486 -6 -87 6 -120 59 -168 45 -41
73 -49 140 -43 61 6 141 58 193 125 l36 46 0 -87 c0 -221 85 -427 230 -559
126 -113 216 -133 329 -71 86 48 127 49 207 4 146 -82 145 -82 209 -78 79 5
115 31 151 106 14 31 33 65 42 75 20 23 69 22 132 -3 93 -37 139 -43 186 -25
52 20 77 56 77 112 0 36 -8 53 -55 115 -30 40 -67 93 -81 118 -29 52 -73 194
-81 260 l-5 45 22 -30 c86 -122 229 -185 316 -141 42 22 89 81 101 128 40 145
-132 467 -334 627 -56 44 -56 44 -56 98 0 44 9 72 50 156 137 282 122 595 -39
839 -124 188 -319 313 -546 353 -95 16 -238 18 -325 4z m341 -74 c94 -20 191
-61 278 -119 195 -130 321 -371 321 -616 0 -129 -64 -345 -125 -426 -21 -28
-89 -74 -109 -74 -2 0 6 33 19 73 42 131 58 227 58 352 1 211 -54 348 -197
490 -125 125 -255 177 -441 177 -236 1 -442 -118 -566 -329 -71 -119 -111
-330 -90 -476 10 -74 44 -208 66 -259 10 -25 -15 -23 -56 5 -43 29 -71 79
-111 197 -30 90 -32 103 -32 240 0 135 3 151 31 235 45 132 93 207 197 310
124 122 240 187 390 220 84 19 278 18 367 0z m-31 -231 c98 -29 172 -73 240
-144 181 -187 217 -459 105 -784 -19 -54 -36 -100 -38 -102 -11 -12 -174 -35
-316 -45 -179 -13 -395 -3 -554 27 -103 19 -104 20 -146 145 -76 222 -64 440
32 624 47 89 156 194 247 239 133 65 295 80 430 40z m-750 -1069 c170 -58 270
-70 580 -70 315 0 399 10 560 65 46 16 85 28 86 27 1 -1 4 -15 8 -30 6 -27 3
-29 -61 -58 -272 -124 -901 -127 -1189 -6 -55 23 -59 27 -62 61 -2 20 -1 36 1
36 2 0 37 -11 77 -25z m1348 -161 c71 -65 151 -164 191 -235 l21 -37 -82 -40
c-46 -23 -105 -59 -132 -81 -26 -23 -52 -41 -56 -41 -5 0 -17 12 -28 28 -14
20 -22 60 -31 157 -13 139 -25 170 -59 149 -21 -14 -21 -36 2 -262 10 -96 15
-180 12 -187 -6 -17 -133 -58 -247 -80 -115 -22 -423 -31 -581 -16 -126 12
-284 47 -348 79 -35 17 -35 17 -32 77 4 79 21 280 28 327 5 30 2 38 -16 48
-18 9 -25 9 -35 -2 -13 -13 -35 -158 -35 -231 0 -23 -8 -51 -21 -68 l-21 -30
-50 46 c-44 42 -177 115 -208 115 -17 0 -7 22 46 101 47 71 174 213 205 230
14 7 34 3 77 -15 84 -35 209 -65 341 -82 132 -16 412 -18 551 -4 120 13 287
54 365 90 33 16 63 29 66 29 4 1 38 -29 77 -65z m-1672 -378 c75 -38 154 -100
154 -121 0 -22 -99 -104 -140 -116 -32 -10 -44 -9 -77 7 -52 26 -76 74 -68
137 8 62 33 127 50 127 7 0 43 -16 81 -34z m1930 -3 c25 -58 29 -134 10 -171
-30 -58 -94 -79 -158 -53 -35 13 -118 89 -118 106 0 31 190 155 237 155 8 0
21 -17 29 -37z m-1365 -320 c76 -12 168 -16 344 -16 264 0 403 17 540 67 38
14 70 24 71 23 1 -1 14 -38 29 -82 33 -96 60 -147 131 -241 58 -76 64 -97 37
-126 -23 -26 -59 -23 -155 13 -136 50 -200 31 -249 -76 -55 -122 -102 -130
-249 -45 -90 52 -98 55 -165 55 -63 0 -76 -4 -124 -34 -96 -61 -168 -42 -285
75 -93 93 -164 238 -181 369 -3 28 -8 60 -10 71 -5 21 -3 21 79 -7 46 -16 130
-37 187 -46z"/>
<path d="M1605 2866 c-58 -58 -58 -194 0 -252 62 -61 144 -6 153 102 11 131
-81 222 -153 150z"/>
<path d="M2143 2868 c-34 -38 -43 -64 -43 -128 0 -65 26 -132 55 -144 52 -20
104 6 126 62 13 33 11 139 -2 165 -23 44 -52 67 -84 67 -20 0 -39 -8 -52 -22z"/>
<path d="M1713 2483 c-23 -9 -13 -49 20 -80 85 -81 213 -101 313 -50 60 30
106 81 102 111 -5 33 -43 33 -64 0 -22 -33 -107 -74 -153 -74 -56 0 -110 21
-156 62 -24 21 -45 38 -47 37 -1 0 -9 -3 -15 -6z"/>
<path d="M1590 1883 c-36 -13 -40 -34 -40 -198 0 -144 2 -164 18 -178 17 -15
56 -17 350 -17 l331 0 21 27 c20 26 21 37 18 181 -3 148 -4 155 -27 173 -22
18 -42 19 -340 18 -174 0 -323 -3 -331 -6z m630 -193 l0 -130 -300 0 -300 0 0
130 0 130 300 0 300 0 0 -130z"/>
<path d="M1692 1751 c-8 -4 -12 -19 -10 -32 3 -23 5 -24 102 -24 81 0 101 3
109 17 8 12 7 21 -2 32 -10 12 -33 16 -100 16 -47 0 -92 -4 -99 -9z"/>
</g>
</svg>
